<?xml version="1.0" encoding="utf-8"?>
<!-- Generator: Adobe Illustrator 16.0.0, SVG Export Plug-In . SVG Version: 6.00 Build 0)  -->
<!DOCTYPE svg PUBLIC "-//W3C//DTD SVG 1.1//EN" "http://www.w3.org/Graphics/SVG/1.1/DTD/svg11.dtd">
<svg version="1.1" id="Layer_1" xmlns="http://www.w3.org/2000/svg" xmlns:xlink="http://www.w3.org/1999/xlink" x="0px" y="0px"
	 width="400px" height="400px" viewBox="0 0 400 400" enable-background="new 0 0 400 400" xml:space="preserve">
<g>
	<g>
		<g>
			<path stroke="#000000" stroke-miterlimit="10" d="M113.3,366c1.6-4.6,3.6-8.2,6-10.9c3.8,4.5,9.5,8.1,17.1,10.8
				c6.9,2.4,13.3,3.4,19.1,2.7c1.8-3,3.7-6.9,5.7-11.6c2-4.8,4.2-10.4,6.5-17c1.2-3.4,2-6.1,2.4-8.2c0.4-2.1,0.4-3.7-0.1-5
				c-0.5-1.3-1.3-2.3-2.6-3c-1.3-0.7-3-1.5-5.2-2.3c-1-0.3-2-0.7-3-1.1c-1-0.4-2.4-0.8-4.2-1.3c-1.8-0.5-4.1-1.2-6.9-1.9
				c-2.8-0.8-6.6-1.8-11.2-2.9c-0.2-2.7,0.6-6.8,2.4-12.2c2.4,0.8,4.8,1.5,7.4,2c2.6,0.5,4.8,1.1,6.7,1.8c1.4,0.5,3,1.1,4.9,1.8
				c1.9,0.7,3.9,1.5,6,2.4c2.1,0.8,4.2,1.7,6.2,2.5c2.1,0.8,3.9,1.6,5.6,2.3c1.7,0.7,3.1,1.3,4.3,1.8c1.2,0.5,1.8,0.8,2,0.8
				c0.8,0.3,0.7,2.8-0.5,7.4c-1.2,4.6-3.1,10.8-5.8,18.5c-4,11.5-7.2,19.8-9.4,24.8c-4.9,11.3-15.7,14-32.3,8.2
				C127.9,374.1,120.9,370.6,113.3,366z"/>
			<path stroke="#000000" stroke-miterlimit="10" d="M45.6,256.8c4.4-2.7,8.9-5.3,13.4-7.6c4.5-2.3,9.2-4.5,14-6.6
				c0.2-0.1,0.9-0.3,2.1-0.6c1.2-0.3,2.6-0.7,4.2-1.1s3.2-1,5-1.6c1.7-0.6,3.1-1.3,4.2-2c0.9-0.5,1.3-0.9,1.4-1
				c4.7,3.2,9.3,8.4,13.7,15.5c6.2,10,9.7,20.1,10.5,30.3C102,292.3,93,299.3,87,303c-12.8,7.9-26.2,11.6-40.4,11.1
				c-0.8-1.2-1.6-2.4-2.4-3.6c-0.8-1.2-1.6-2.4-2.3-3.7c-2.5-4.1-4.7-7.9-6.7-11.5c-1.9-3.6-3.8-7.1-5.4-10.5
				c-0.3-0.6-0.6-1.5-1-2.7c-0.4-1.2-0.7-2.4-1.1-3.6c-0.4-1.3-0.8-2.4-1.1-3.6c-0.3-1.1-0.6-1.9-0.8-2.4
				C30.5,267.2,37.2,262,45.6,256.8z M49.7,269.1c-6.3,3.9-10,6.6-11.1,8.1c4.1,10.1,6.9,16.5,8.5,19.1c0.7,1.2,1.5,2.3,2.3,3.3
				c0.8,1,1.7,2,2.6,3c13.2-2.4,24.6-6.6,34.3-12.6c8.1-5,12.5-10.4,13.1-16.2c-2.1-4.3-3.7-7.7-4.9-10.1c-1.2-2.4-2-3.9-2.3-4.4
				c-2.2-3.6-4.3-5.7-6.1-6.3c-0.8-0.3-2.5,0-5.1,0.8s-5.6,2.1-9.1,3.6c-3.5,1.6-7.2,3.3-11.1,5.4C56.9,264.8,53.2,266.9,49.7,269.1
				z"/>
			<path stroke="#000000" stroke-miterlimit="10" d="M65.6,150.5c1.6,0.2,4.4,1,8.5,2.4c4.1,1.4,9.3,3.4,15.8,6.1
				c0.6,2.2,0.9,4,0.9,5.5c0,1.5,0,3.2-0.1,5.2c0,0.8-0.2,2.8-0.6,6c-0.4,3.2-0.9,7.7-1.7,13.6c-0.3,2.4-0.7,5-1.1,7.8
				c-0.4,2.8-0.8,5.9-1.2,9.2c-0.3,2.6-1.9,3.7-4.7,3.4c-0.5-0.1-1.1-0.2-1.9-0.5c-0.8-0.2-1.6-0.5-2.5-0.8
				c-0.9-0.3-1.7-0.6-2.5-0.8c-0.8-0.2-1.4-0.4-1.8-0.4C62,205,52.8,203.3,45.3,202c-7.5-1.3-13.8-2.3-18.7-2.9
				c-6.8-0.9-11.4-1-14-0.5c3.3-10.2,7-25.9,11.1-47c0.8,0,2.2,0,4.2-0.1c2-0.1,4.2-0.2,6.8-0.3c2.6-0.1,5.3-0.3,8.3-0.5
				c3-0.2,5.9-0.3,8.7-0.4c2.8-0.1,5.5-0.1,7.9-0.1C62,150.2,64.1,150.3,65.6,150.5z M66.8,161.9c-9.2-1.2-20.7-1.1-34.7,0.3
				c-3.8,11.3-5.9,19-6.4,23c-0.1,1.1,0.5,2.1,2,3.1c1.5,1,4.1,1.9,7.9,2.9c3.8,1,8.9,2,15.5,3.1c6.5,1.1,14.7,2.3,24.6,3.5l1.4-1.5
				c0.1-0.5,0.2-1.4,0.4-2.6c0.2-1.3,0.5-2.6,0.8-4.2c0.3-1.5,0.6-3,0.8-4.4c0.3-1.4,0.4-2.5,0.5-3.3c0.4-3.4,0.5-6.2,0.3-8.6
				c-0.3-2.3-0.9-4.3-2-5.9c-1.1-1.6-2.5-2.8-4.4-3.7C71.8,162.9,69.5,162.3,66.8,161.9z"/>
			<path stroke="#000000" stroke-miterlimit="10" d="M100.5,72.6c1.4,1.3,2.7,2.5,3.8,3.8c1.2,1.3,2.2,2.5,3.1,3.8
				c0.1,0.3-0.4,1.1-1.4,2.4c-1,1.3-2.2,2.8-3.7,4.6c-1.5,1.8-3,3.8-4.7,5.8c-1.7,2.1-3.2,4-4.5,5.8c-1.3,1.8-2.4,3.4-3.1,4.8
				c-0.7,1.4-0.8,2.3-0.4,2.7c2.9,2.6,5.3,4.7,7.3,6.2c2,1.5,3.6,2.5,5,3c1.4,0.5,2.5,0.6,3.5,0.2c1-0.3,1.9-1.1,2.9-2.1
				c0.1-0.2,0.7-0.9,1.7-2.4c1-1.4,2.2-3.1,3.7-5.1c1.4-2,3-4,4.7-6.2c1.7-2.2,3.2-4.1,4.6-5.8c0.3,0.4,0.6,0.7,1,1.1
				c0.3,0.3,0.7,0.7,1.1,1l3.9,3.5c0.3,0.3,0.6,0.5,1,0.8c0.3,0.3,0.6,0.5,1,0.7c0,0.4-0.5,1.3-1.5,2.7c-1,1.4-2.3,3-3.9,5.1
				c-1.6,2-3.5,4.3-5.6,6.8c-2.1,2.5-4.4,5.1-6.8,7.9c-0.7,0.9-1.6,2.3-2.7,4.3c-1,1.9-2.2,4.4-3.5,7.5c-4.2-3.6-7.9-6.8-11.4-9.8
				c-3.4-3-6.7-5.7-9.7-8.3c-3.1-2.6-6-5.1-8.9-7.4c-2.8-2.3-5.8-4.7-8.9-7c-3.1-2.3-6.3-4.7-9.8-7.1c-3.4-2.4-7.3-5-11.4-7.7
				c1.1-1,2.2-2,3.3-3.2c1.1-1.1,2.2-2.3,3.3-3.5c0.9-1,2.3-2.6,4-4.7c1.8-2.1,3.6-4.3,5.5-6.7c1.9-2.4,3.8-4.6,5.5-6.7
				c1.8-2.1,3.1-3.7,4-4.7c0.9-1,1.8-1.9,2.6-2.8c0.9-0.9,1.7-1.8,2.6-2.6c0.6,0.8,1.3,1.7,2,2.4c0.7,0.7,1.5,1.5,2.3,2.2l1.2,1
				c0.7,0.7,1.1,1,1.2,1c-1.3,1.4-2.6,3-4.1,4.9c-1.5,1.9-3.2,4.1-5.1,6.5c-2.4,3.1-4.3,5.5-5.8,7.3c-1.5,1.8-2.4,3.4-2.8,4.7
				c-0.4,1.3-0.3,2.5,0.5,3.7c0.7,1.2,2.1,2.7,4.1,4.5c3.6,3.3,6.8,4.7,9.6,4.5c0,0.1,0.3-0.4,0.9-1.2c0.6-0.9,1.5-2,2.5-3.4
				c1-1.4,2.2-3,3.6-4.8c1.4-1.8,2.7-3.6,4.1-5.4c1.4-1.8,2.7-3.5,4-5.1c1.3-1.6,2.5-3,3.5-4.1L100.5,72.6z"/>
			<path stroke="#000000" stroke-miterlimit="10" d="M188.3,9.7c0.8,1.8,1.5,3.6,2,5.5c0.6,1.8,0.9,3.3,1.2,4.3
				c0.3,1.1,0.4,2,0.3,2.7c-0.4,0-1.2,0-2.5,0c-1.3,0-2.8-0.1-4.4-0.1c-1.7,0-3.3,0-4.9,0c-1.6,0-2.8,0.1-3.7,0.4
				c-0.4,0.1-0.8,0.2-1.2,0.2c-0.4,0.1-0.8,0.1-1.2,0.2c-0.9,0.2-1.7,0.6-2.5,1.1c-0.8,0.5-1.4,1.4-1.8,2.6c-0.4,1.3-0.7,3-0.6,5.2
				c0,2.2,0.4,5.2,1.2,8.9c0.1,0.5,0.5,2.1,1.1,4.6c0.6,2.5,1.2,5.5,2.1,9c0.8,3.5,1.7,7.2,2.6,11.3c0.9,4,1.8,7.8,2.6,11.4
				c0.8,3.6,1.5,6.6,2.1,9.2c0.6,2.6,1,4.2,1.1,4.9c-1.9,0-4.2,0.2-7.2,0.5c-2.9,0.3-6,0.9-9.3,1.7c0-1.4-0.1-3.6-0.5-6.6
				c-0.3-3-0.8-6.9-1.5-11.6c-1.3-8.8-2.3-16-3.1-21.5c-0.8-5.6-1.5-10.1-2-13.5c-0.5-3.4-0.9-5.9-1.2-7.6c-0.3-1.7-0.6-3-0.8-3.9
				c-2.7-0.1-4.7,0-5.9,0.3c-2,0.5-4.4,1.4-7.3,2.6c-2.8,1.2-5.6,2.7-8.4,4.5c-0.2-2.1-0.5-4.1-0.9-6.1c-0.4-1.9-0.8-3.9-1.2-5.8
				c2.3-0.7,4.7-1.4,7.2-2.1c2.5-0.7,5.2-1.4,8-2.1c2.3-0.5,4.6-1.1,6.8-1.6c2.3-0.5,4.5-1,6.6-1.4c2.1-0.4,4.1-0.9,6-1.3
				c1.9-0.4,3.5-0.8,4.9-1.1c3.3-0.8,6.3-1.6,9-2.3C183.7,11,186.1,10.3,188.3,9.7z"/>
			<path stroke="#000000" stroke-miterlimit="10" d="M241.3,84.1c-1.5-0.5-3-1.1-4.6-1.6c-1.6-0.5-3.1-1-4.7-1.4l-2-0.5
				c-0.1-0.6,0.1-2.2,0.6-4.8c0.4-2.6,1-5.8,1.8-9.5c0.8-3.7,1.6-7.8,2.6-12.2c0.9-4.4,1.9-8.6,2.8-12.8c0.9-4.1,1.8-7.9,2.6-11.3
				c0.8-3.4,1.4-6,1.9-7.7c0.6-2.3,1.4-3.9,2.5-4.8c1.1-0.9,2.2-1.5,3.4-1.7c1.2-0.2,2.4-0.2,3.5,0.1c1.2,0.2,2.2,0.4,3,0.5
				c-1,3-2.2,7-3.5,12c-2.3,8.7-4.1,16.4-5.4,23.2c-1.3,6.8-2.3,12.6-2.9,17.3c-0.6,4.7-1,8.4-1.2,11
				C241.4,82.3,241.3,83.8,241.3,84.1z"/>
			<path stroke="#000000" stroke-miterlimit="10" d="M352.1,81.4c-1.1,1.7-2.2,3.2-3.5,4.7s-2.2,2.6-2.9,3.3
				c-0.8,0.8-1.5,1.4-2.1,1.8c-0.2-0.3-0.6-1-1.3-2.1c-0.7-1.1-1.5-2.4-2.3-3.8c-0.9-1.4-1.8-2.8-2.7-4.1c-0.9-1.3-1.7-2.3-2.3-2.9
				c-0.3-0.3-0.6-0.6-0.8-0.9c-0.3-0.3-0.5-0.6-0.8-0.9c-0.7-0.6-1.4-1.1-2.3-1.5s-1.9-0.4-3.2-0.1c-1.3,0.3-2.9,1.1-4.7,2.4
				c-1.9,1.3-4.1,3.2-6.8,5.9c-0.4,0.4-1.5,1.5-3.2,3.4c-1.8,1.9-3.9,4.1-6.4,6.7c-2.5,2.6-5.1,5.4-8,8.3c-2.9,3-5.6,5.8-8.1,8.4
				c-2.5,2.6-4.7,4.9-6.5,6.8c-1.8,1.9-3,3.1-3.5,3.6c-1-1.5-2.5-3.4-4.4-5.7c-1.9-2.3-4-4.6-6.5-6.9c1.2-0.8,3-2.1,5.3-4
				c2.3-1.9,5.3-4.5,8.9-7.6c6.6-5.9,12.1-10.7,16.3-14.4c4.2-3.8,7.6-6.8,10.2-9.1c2.6-2.3,4.4-4.1,5.7-5.2
				c1.2-1.2,2.2-2.1,2.9-2.8c-1.4-2.4-2.6-4-3.5-4.8c-1.5-1.4-3.6-3-6.2-4.6c-2.6-1.7-5.4-3.2-8.4-4.6c1.6-1.3,3.2-2.7,4.6-4.1
				c1.4-1.4,2.8-2.8,4.1-4.2c1.8,1.5,3.7,3.1,5.7,4.8c2,1.7,4,3.6,6.1,5.5c1.7,1.6,3.4,3.2,5.1,4.8c1.7,1.6,3.3,3.2,4.8,4.7
				c1.5,1.5,3,3,4.4,4.3c1.4,1.3,2.6,2.5,3.7,3.5c2.5,2.3,4.8,4.4,6.9,6.2C348.5,78.2,350.4,79.9,352.1,81.4z"/>
			<path stroke="#000000" stroke-miterlimit="10" d="M326.6,193.7c-0.9-0.7-2-4.3-3.5-10.6c-0.2-0.7-0.4-1.9-0.7-3.4
				c-0.3-1.5-0.6-3.1-0.9-4.7c-0.3-1.6-0.6-3.2-0.9-4.7c-0.3-1.5-0.5-2.6-0.7-3.3c-0.6-2.6-2.7-6.9-6.4-12.8c1.6-0.4,3.6-1,6.1-1.6
				c2.4-0.6,5-1.3,7.7-2c2.7-0.7,5.5-1.4,8.3-2.1c2.8-0.7,5.4-1.3,7.8-1.9c2.4-0.6,4.5-1.1,6.2-1.5c1.7-0.4,2.9-0.7,3.5-0.8
				c1.4-0.5,3.6-1.2,6.7-2.2c3-1,6.3-2.1,9.7-3.2c3.4-1.2,6.7-2.3,9.9-3.5c3.2-1.2,5.7-2.2,7.4-3c0.1,0.8,0.2,1.5,0.4,2.3
				c0.1,0.8,0.3,1.6,0.5,2.3c0.2,0.8,0.5,1.9,0.8,3.2c0.4,1.3,0.8,2.7,1.2,4.1c0.4,1.4,0.8,2.7,1.2,3.9c0.4,1.2,0.6,2,0.7,2.5
				c-2.7-2-14.5-0.6-35.3,4.1c-9.2,2.1-15.9,3.8-20.2,5.3c-4.2,1.5-6.2,2.6-6.1,3.4c1.7,7.6,4,16.8,6.9,27.7
				c-0.8,0.1-1.5,0.2-2.3,0.3c-0.8,0.1-1.6,0.2-2.4,0.4C330.3,192.6,328.4,193.1,326.6,193.7z"/>
			<path stroke="#000000" stroke-miterlimit="10" d="M305,270.6c-0.1-0.8,0-1.9,0.1-3.3c0.1-1.4,0.3-2.8,0.5-4.3
				c0.2-1.5,0.4-2.8,0.6-4c0.2-1.2,0.3-2.1,0.3-2.5c1.7,0.1,3.9,0.5,6.8,1.2c2.9,0.7,6.6,1,11.1,1.1c1.7-4,3.3-7.9,4.9-11.5
				c1.6-3.6,3.3-7.2,5-10.6c-0.8-1.1-2-2.4-3.5-3.6c-1.5-1.3-3.1-2.5-4.7-3.7c-1.6-1.2-3.1-2.2-4.5-3.1c-1.4-0.9-2.3-1.5-2.9-1.8
				c2.6-2.9,4.3-5.3,5-7.2c0.5-1.2,0.7-2,0.6-2.6c0.4,0.2,1.4,0.9,3,2c1.6,1.1,3.7,2.5,6.2,4.2c2.5,1.7,5.2,3.6,8.3,5.7
				c3.1,2.1,6.2,4.2,9.3,6.3c3.1,2.1,6.2,4.3,9.3,6.4c3,2.1,5.8,4,8.3,5.8c2.5,1.7,4.5,3.1,6.1,4.3c1.6,1.1,2.6,1.8,2.9,2.1
				c1.3,1,2.8,2.2,4.4,3.4c1.6,1.2,3.4,2.6,5.3,4.2c-1.9,3.5-3.5,6.6-5,9.3c-1.5,2.6-2.8,4.9-3.9,6.8c-3.5-1.4-6.7-2.5-9.6-3.3
				c-2.9-0.8-5.8-1.4-8.6-1.8c-2.9-0.4-5.9-0.6-9-0.7c-3.1-0.1-6.7-0.1-10.7,0c-0.2,0-1.2,0-3,0c-1.8,0-3.9,0.1-6.5,0.2
				c-2.5,0.1-5.3,0.2-8.2,0.3c-3,0.1-5.7,0.2-8.3,0.3s-4.7,0.2-6.4,0.3C306.1,270.5,305.1,270.6,305,270.6z M369.5,260.5
				c-1.4-1.3-3.1-2.6-5-4c-1.9-1.4-3.9-2.9-6-4.4c-2.2-1.5-4.4-3-6.7-4.5c-2.3-1.5-4.6-3-6.8-4.5c-1.7,0.4-3.2,2-4.3,4.8
				c-0.8,2.1-1.4,3.9-1.8,5.3c-0.4,1.4-0.5,2.5-0.4,3.5c0.1,0.9,0.4,1.7,0.9,2.2c0.5,0.5,1.3,1,2.3,1.4c1.1,0.4,2.5,0.7,4.2,0.7
				c1.7,0.1,3.8,0,6.1,0c2.3-0.1,4.9-0.2,7.9-0.3C362.7,260.4,366,260.4,369.5,260.5z"/>
			<path stroke="#000000" stroke-miterlimit="10" d="M232,314c-1.1-2,1.2-4.8,6.8-8.4c3.3,1.4,7,2.8,11.1,4.4
				c4.1,1.6,8.8,3.5,14.2,5.8c4.4,2,8.3,4,11.6,5.8c3.4,1.9,6.5,3.5,9.3,5c2.8,1.5,5.5,2.6,8,3.4c2.5,0.8,5,1.3,7.7,1.2
				c0-2-1-4.5-2.7-7.7l-2.5-4.5c-0.4-0.7-0.7-1.3-1.1-1.9c-0.4-0.6-0.8-1.2-1.2-1.8c-0.5-0.8-1.3-2-2.4-3.6s-2.3-3.4-3.7-5.4
				c-1.4-2-2.8-4.1-4.4-6.3c-1.5-2.2-3-4.2-4.3-6.2c-1.4-1.9-2.6-3.7-3.6-5.2c-1-1.5-1.8-2.6-2.3-3.3c1.1-0.4,2.2-0.9,3.3-1.4
				c1.1-0.5,2.2-1,3.3-1.6c1.7-0.9,3.4-2,5.1-3.2c0.5,0.9,1.4,2.5,2.7,4.7c1.3,2.2,2.9,4.9,4.7,8c1.8,3.1,3.8,6.4,6,10.1
				c2.2,3.6,4.4,7.3,6.6,11c2.2,3.7,4.4,7.4,6.6,10.9c2.2,3.5,4.1,6.8,5.9,9.7c1.8,2.9,3.3,5.3,4.5,7.3c1.2,2,2,3.2,2.4,3.8
				c-1.5,1.2-3.1,2.4-4.6,3.4c-1.5,1-3,2-4.6,2.8l-1.2,0.7c-2.2-1.6-5.2-3.5-8.9-5.6c-3.7-2.1-7.9-4.3-12.7-6.5
				c-4.8-2.2-10-4.4-15.7-6.5s-11.6-3.9-17.7-5.5l-1.6,1.6c1.9,3.3,4.2,7,7,11c2.8,4,5.6,7.8,8.3,11.6c2.8,3.8,5.3,7.2,7.6,10.3
				c2.3,3.1,4,5.6,4.9,7.3c-1.6,1.2-3.1,2.3-4.6,3.2c-1.5,1-2.9,1.9-4.3,2.6l-2,1.1c-1-0.9-2.3-2.3-3.8-4.3c-1.5-2-3.4-4.8-5.6-8.3
				s-5-7.8-8.2-13c-3.2-5.2-7.1-11.3-11.6-18.5c-2.5-3.9-4.7-7.3-6.7-10.3C235.6,318.9,233.7,316.3,232,314z"/>
			<path stroke="#000000" stroke-miterlimit="10" d="M198.9,385.6c0.2-2,0.5-4.5,0.6-7.3c0.2-2.9,0.4-5.9,0.5-9.2
				c0.2-3.3,0.3-6.6,0.4-9.9c0.1-3.4,0.2-6.5,0.2-9.4c0.1-3.4,0.1-7.4,0.1-12c0-4.6,0-9.3,0-13.9c0-4.7-0.1-9-0.3-13.1
				c-0.1-4.1-0.3-7.3-0.6-9.7c0.6,0.2,1.2,0.4,1.7,0.6c0.5,0.1,1.1,0.2,1.8,0.2c0.8,0,1.8-0.1,3-0.3c-0.2,1.9-0.5,4.6-0.7,8.2
				c-0.2,3.6-0.4,7.4-0.6,11.6c-0.2,4.2-0.3,8.3-0.5,12.5c-0.1,4.2-0.2,7.8-0.3,10.9c0,3-0.1,6.3-0.1,9.9c0,3.6,0,7.3,0,11
				c0,3.7,0.1,7.3,0.2,10.8c0.1,3.5,0.2,6.6,0.4,9.3c-0.7,0.1-1.3,0.2-1.8,0.3c-0.5,0.1-0.9,0.1-1.3,0.1
				C200.8,386.3,199.9,386,198.9,385.6z"/>
		</g>
		<path fill-rule="evenodd" clip-rule="evenodd" d="M218.3,114.9c3.2,0.3,4.1,1.9,2.4,4.5c-0.4,0.7-0.9,1.4-1.6,1.9
			c-1.7,1.3-1.6,2.2-0.1,3.9c2.1,2.4,0.8,5.4,0.4,8.2c-0.1,1-0.7,1.9-0.9,2.9c-0.4,2.1-0.6,4.3-3.8,4.4c0.1,0.3,0.3,0.5,0.4,0.8
			c2.5,0.3,5,0.7,7.5,0.9c0.4,0,1-0.4,1.3-0.8c3.3-4.5,3.3-4.5,8.4-2.8c-0.9-0.8-1.8-1.6-2.7-2.3c-6-4.3-3.3-10.7,2-12.7
			c3.6-1.4,7.3-1.3,10.8,0.1c1,0.4,1.8,1.6,2.7,2.4c-1.1,0.8-2.2,1.7-3.4,2.4c-0.9,0.5-2.1,0.6-3.5,1c1.9,2.7,4.2,2.9,6.5,3.3
			c4.7,0.8,9.7,1.1,13.9,3c7.6,3.4,13.4,9.3,17.6,16.7c0.9,1.7,2.1,3.2,3.3,4.7c1.8,2.3,3,4.5,1.4,7.6c-0.6,1-0.2,2.7,0.1,4
			c0.8,4,1.7,7.9,2.6,11.9c0.2,0.7,0.7,1.3,1.2,1.8c4,3.2,4.6,8.9,0.9,12.4c-1.5,1.4-1.7,2.8-1.6,4.7c0.1,4.2-0.1,8.4,0,12.6
			c0,0.7,0.9,1.8,1.6,2.1c2.8,1.1,4.1,3.3,2.9,6c-0.4,1-2.1,2.2-3.1,2.1c-2.7-0.3-3.6,1.2-4.5,3.2c-2.1,4.8-3.9,9.8-6.6,14.3
			c-2.5,4.4-5.8,8.3-9,12.2c-1.3,1.6-1.6,2.8-0.3,4.3c1.4,1.6,1.8,3.3,0,4.9c-1.7,1.5-3.4,3.5-6,1.5c-1.5-1.1-2.8-0.9-4.3,0.2
			c-7.3,5.5-15.3,9.6-23.7,12.9c-2.5,0.9-5.1,1.6-7.7,2.1c-1.8,0.3-2.1,1-1.9,2.6c0.3,2.4,0.1,4.4-2.9,4.9c-3.9,0.7-5.6,0.2-6.9-2.7
			c-0.8-1.8-1.8-2.6-4-2.6c-13,0.3-25.4-2.6-36.9-7.9c-1.7,1.2-3.3,3-4.8,3c-2,0-4.1-1.4-5.9-2.6c-0.7-0.5-1-2.3-0.6-3.2
			c0.8-2.2,0.5-3.6-1.3-5.1c-3.9-3.5-8-6.9-11.6-10.7c-3.5-3.8-6.4-8-9.8-12.4c0.1,0-0.3-0.1-0.6,0.1c-2.2,1.3-4.3,1.4-5.9-0.9
			c-2.3-3.3-2-5.2,0.4-7.7c0.7-0.7,1.1-2.3,0.8-3.3c-1-4.5-2.8-8.9-3.4-13.4c-0.8-5.6-0.9-11.4-1.1-17.1c-0.1-1.6-0.3-2.3-1.9-2.6
			c-3.4-0.7-3.7-1.5-3.5-5.4c0.2-2.7,1.1-4.3,4.2-4.2c1,0,2.6-1.5,2.9-2.6c2.7-10.1,6.5-19.6,12.8-28.1c-0.6-0.6-1-1.2-1.6-1.6
			c-2.1-1.4-2.6-2.9-1.1-5.1c2.2-3.1,3.7-3.9,6.3-2.5c3.4,1.8,4.5-1.4,6.3-2.8c1.8-1.4,0.8-2.6-0.1-4c-3.9-5.8-2.7-10.7,3.3-14.7
			c0.7-0.4,0.7-2,0.9-3c0.1-0.6-0.2-1.7,0.1-1.8c2.4-1.4,4.9-2.7,7.9-4.3c0-0.1,0.2-1,0.4-2.1c1.2,0.2,2.2,0.4,3.3,0.6
			c0-0.2-0.1-0.5-0.1-0.7c1.4-0.4,2.9-0.8,4.3-1.2c2.3-0.7,4.5-1.6,6.8-2.1c1-0.2,2.2,0.5,3.3,0.9c-2,1.2-0.1,2,0.5,2.6
			c0.5,0.6,1.5,0.8,2.4,1.2c0.1-0.3,0.2-0.5,0.4-0.8c-1.1-1-2.2-2.1-3.3-3.1c3,0.5,4.8,2.5,6.2,5c0.5,0.8,1.1,1.7,1.8,2.3
			c1.3,1,2.3,1,3-1c1.2-3.7,3.9-5,7.9-4.5c0.6,0.1,1.4-0.1,1.7-0.5c2-2.2,3.9-1.2,5.9-0.1c0.7,0.4,2.1,0.5,2.6,0.1
			c2-1.6,3.5-0.9,5.1,0.6C216.8,114,217.6,114.4,218.3,114.9c-1.1,0.8-2.4,1.5-3.6,2.2c0.2,0.1,0.4,0.2,0.7,0.3
			c-0.3,1.7-0.5,3.4-0.9,5.8c1.6-1.1,3-1.8,4.1-2.9C220.8,118.1,220.7,116.8,218.3,114.9z M178.2,139.9c0.7,0.3,1.5,1,2.1,0.9
			c2.7-0.6,5.4-1.4,7-1.9C185,139.1,181.6,139.5,178.2,139.9c-2.7-1.7-5.7-1.4-7.2,0.8c-1.3,2-0.8,3.1,2.3,5.4
			c0.2,0.2,0.4,0.4,0.6,0.5c4.7,1.4,9.5,2.8,14.2,4.1c0.1-0.2,0.1-0.5,0.2-0.7c-4.6-1.3-9.1-2.5-13.7-3.7c-0.2,0-0.5,0.2-0.7,0.4
			c-0.2-0.5-0.6-1.1-0.7-1.6c-0.4-1.2-1.3-2.7-0.9-3.5c0.5-0.9,2.1-1.4,3.3-1.8C176.4,139.6,177.3,139.8,178.2,139.9z M243,145.7
			c0.9,0,1.9-0.1,2.7,0c8.4,1.6,15.7,5.3,21,12.3c1.1,1.4,2.4,2.4,3.9,1.3c0.4-0.3,0-2.5-0.7-3.5c-7-10.4-17.1-15-29.3-15.6
			c-4-0.2-7.8,0.2-9.7,4.5c-0.3,0.6-0.6,1.2-0.8,1.8c0.7,0,1.5,0.2,2.2,0c3.6-1.1,7.1-2.2,10.8-0.8c-2.2,0.2-4.5,0.2-6.6,0.8
			c-2.7,0.7-6,1-6,5.4c14-7.7,25.2-3,35,8.1c0.1-0.8,0-1.4-0.2-1.8c-2.7-4.1-6.6-6.9-11-8.8C250.6,147.8,246.7,146.9,243,145.7z
			 M203,254.8c-3.5-0.5-7.1-0.7-10.5-1.5c-2.6-0.6-5-1.9-7.5-2.9c0.4,0,0.8,0,1.1,0.1c1.7,0.7,2.8,0.1,3.1-1.5
			c0.1-0.7-0.8-1.8-1.5-2.3c-3.2-2.1-6.5-3.8-9.6-6c-2.1-1.5-2.9,0.5-4.2,1.1c0.4,0.9,0.6,2.1,1.3,2.5c3.3,2.2,6.7,4.1,10.1,6.2
			c-1.1-0.3-2.3-0.5-3.4-1c-5.8-2.8-10.9-6.5-15.3-11.2c-10.3-10.9-15.3-23.9-14.4-38.8c0.8-13.6,5.6-25.7,15.4-35.5
			c1.3-1.3,2.5-2.8,3.8-4.2c-2.7-1.8-4.9-1.7-6.6,0.7c-4,5.7-8.4,11.3-11.7,17.4c-4.1,7.6-5.3,16.1-5.1,24.8
			c0.3,11.6,3.3,22,10,31.6c7.6,10.9,17.5,18.3,30.1,22.6c10.9,3.7,21.7,4.2,32.6,1c12.4-3.6,23.2-9.9,30.9-20.6
			c7.2-10,12.6-20.7,12.6-33.4c0-1.3,0.1-2.5,0.2-3.8c-0.3-0.1-0.7-0.2-1-0.2c-1.3,3.7-3.1,7.3-3.9,11c-2.7,12.1-8.1,22.4-17.5,30.7
			c-7.1,6.3-15.3,10.4-24.4,12.3C212.7,254.8,207.8,254.5,203,254.8c1-0.2,2-0.3,3.1-0.5c0.8-0.1,1.8-0.1,2.4-0.5
			c0.7-0.6,1-1.6,1.4-2.4c-0.8-0.3-1.6-0.7-2.4-0.8c-4.5-0.5-9-0.8-13.4-1.4c-2.7-0.4-3.4-0.1-3.6,3c1.6,0.4,3.1,0.8,4.8,1.2
			C197.9,253.7,200.5,254.2,203,254.8z M261.2,200.2c1.9-1.7,1.7-3,0.1-4.6c-1.9-1.8-3.9-4.3-2.7-6.8c1.9-4,0.3-7.2-1.3-10.4
			c-0.5-1-2.1-2-3.4-2.1c-3.7-0.3-5.7-2.6-5.1-6.2c0.1-0.6,0.1-1.6-0.2-1.7c-1.8-1-3.7-2.3-5.7-2.6c-1.1-0.1-2.6,1.3-3.7,2.3
			c-0.3,0.3,0.2,2.1,0.3,2.1c1.2,0,2.4,0,3.5-0.4c2.4-0.9,4.2,0.3,4.1,3c-0.1,2.4-1.1,4.3-3.4,5.2c-3.5,1.5-6.6,0.7-9.3-1.7
			c-1.8-1.5-3.3-3.4-5-5.2c-0.9,0.7-1.8,1.4-2.7,2c-3.5,2.2-5.9,1.8-7.4-1.2c-1.8,0.3-4.1,1.4-5.3,0.7c-1.1-0.6-1.1-3.2-1.6-5
			c-3.6-0.1-3.7-0.3-3-4.1c0.4-2.1,0.9-4.2,1.4-6.4c-6.2,0.5-8.1,2.6-8,8.3c0,2.6,0,5.3-2.1,7c-1.4-1.6-2.7-3.1-3.9-4.5
			c-2,2-3.4,3.4-4.8,4.9c-0.5-2.2-0.9-4.1-1.4-6.3c-2.4,2.2-4.2,3.9-6.5,6c0.2-2.4,0.7-4.1,0.4-5.6c-0.3-1.7-1.3-3.2-2-4.8
			c-0.1-0.3-0.3-0.7-0.3-1.1c-0.4-3.1-0.9-3.3-3.6-1.6c1.3,4.1,1.4,4.8-0.3,6.4c-3.8,3.7-4.2,8.6-4.7,13.3c-0.5,4.2-2.1,7-6.2,7.9
			c-2.1,0.4-2.4,2-2.6,3.8c0.6,0.1,1.2,0.1,1.6,0.3c2.1,0.8,3.7,2,3.7,4.6c0,3.5-1.6,6.7-3.6,7.5c-0.8,0.3-1.5,0.8-2.3,1.2
			c0.6,0.9,1,1.9,1.7,2.5c1.5,1.4,2.1,4.1,1,5.5c-2.2,2.9-1,6.3,2.7,7.4c2.3,0.7,4,3.7,3.4,6.1c-0.1,0.6-0.2,1.3-0.1,1.8
			c0.2,1.5,0.6,3,0.9,4.5c1.4,2.4,3.1,5.1,7,4.3c1.1-0.2,2.5,0.7,3.6,1.2c4.8,2.5,5.3,2.3,6.3-3.2c0-0.1,0.3-0.2,1-0.7
			c1.2,2.8,2.3,5.4,3.6,8c0.3,0.6,0.9,1.4,1.6,1.5c1.2,0.4,2.5,0.5,3.8,0.5c2.3,0.1,3.7-1,3.7-3.4c0-1.1,0.1-2.2,0.2-3.3
			c0.2-0.1,0.5-0.1,0.7-0.2c1.1,1.5,2.3,3,3.4,4.5c2.1,2.8,3.8,2.7,5.7-0.1c1.2-1.9,2.7-3.3,5.3-2.3c5,2,8,0.3,9-5
			c0.4-2.2,2.9-4.1,4.8-3.5c4.4,1.4,7.6,0,8.7-4.4c0.6-2.5,0.3-5.3,0.4-7.9c0.1-1.6,0-3.3,0.4-4.8c0.2-0.6,1.6-1.3,2.3-1.2
			c1.5,0.4,2.6,0.4,2.9-1.4c0.3-1.8,1-3.6-1.3-4.8c-3.6-1.8-3.6-2.5-0.2-5c0.4-0.3,0.8-0.8,1.3-1.1c1.8-1.1,3.6-1.8,5.5,0.1
			c0.4,0.4,1.7,0.6,2,0.3C257.3,198.3,259.2,199,261.2,200.2z M210,155.9c0-0.3,0-0.7,0-1c-0.6-0.1-1.1-0.3-1.7-0.4
			c-3.4-0.4-6.8-0.5-10.2-1.1c-6.3-1.2-12.6-2.7-18.9-3.9c-1.1-0.2-2.7-0.1-3.5,0.6c-5.2,4.2-11.8,0.7-13-5.8
			c-0.7-3.8,1.7-8,5.6-9.6c4.4-1.8,8.1-0.8,10.7,2.8c0.4,0.6,1.8,1.1,2.5,0.9c3.7-1.4,7.9-2.5,11-4.9c4-3.1,8.2-3.9,12.9-3.8
			c3.5,0.1,7,0.3,10.5,0.3c0.9,0,2.5-0.8,2.6-1.4c0.1-1-0.4-2.5-1.2-3c-1.5-0.9-3.4-1.8-5.1-1.7c-6.3,0.2-12.7,0.6-19,1.4
			c-2.2,0.3-4.7,1.4-6.3,3c-3.8,3.7-7.7,5.2-13,3.6c-4.9-1.5-9.1,1-12.3,4.6c-2.9,3.4-3.3,7.5-2,11.7c1.7,5.3,9.8,11.5,18.8,9.8
			c7.4-1.4,14.9-3.2,22.7-1.3C203.8,157.3,207,156.2,210,155.9z M221.6,173c0.4,0.2,0.7,0.4,1.1,0.6c3.1-3.3,6.4-6.6,9.4-10
			c4.1-4.6,10.3-6.7,15.1-4.4c2.9,1.4,5.4,3.8,8,5.7c1.2,0.9,2.2,1.8,3.5,0.1c1.1-1.4,2.4-2.5,0.4-4.1c-1.9-1.5-3.6-3.2-5.6-4.5
			c-4.6-2.8-9.4-4.9-14.9-3.1c-8.3,2.7-13.3,8.9-16.9,16.5C221.3,170.7,221.6,171.9,221.6,173z M273.6,156.6
			c0.3-0.1,0.6-0.2,0.9-0.3c-0.1-0.9,0-2-0.5-2.7c-4.5-7.6-10.7-13.4-19.1-16.4c-3.4-1.2-7.2-1.4-10.8-1.9c-1.4-0.2-2.8-0.1-4.1-0.5
			c-2-0.6-4.5-1.5-4.2-4c0.2-1.6,1.7-3.1,2.8-4.9c-0.6-0.1-1.7-0.5-2.8-0.5c-3.3-0.1-6.2,1.8-6.9,4.4c-0.6,2.3,0.6,4.8,3.9,6.2
			c2.5,1.1,5.3,1.7,8,1.9c11,0.9,20.7,4.5,28.1,13C270.4,152.7,272,154.6,273.6,156.6z M173.9,160c-0.7,0.4-1,0.5-1.2,0.7
			c-0.5,0.4-1,0.8-1.5,1.2c-7,5.8-12,13-14.7,21.6c-1.5,4.6-2.2,9.5-3,14.3c-0.1,0.6,0.9,1.4,1.4,2.2c0.7-0.6,1.7-1.1,1.9-1.9
			c1.6-5.5,2.3-11.3,4.6-16.4c2.9-6.4,5.8-13.3,13.6-15.8c0.5-0.2,1.2-0.6,1.3-1c0.4-1.3,1-2.8,0.6-4
			C176.7,160.3,174.8,160.2,173.9,160z M283.5,184.5c-0.1,0.2-0.3,0.4-0.4,0.6c0.1,0.2,0.1,0.5,0.2,0.7c0.9,1.3,1.5,2.9-0.2,3.8
			c-0.5,0.3-2.2-1.2-2.9-2.2c-1.1-1.5-1.6-3.3-2.7-4.8c-2.2-3-5.9-2.7-7.6,0.6c-0.8,1.4-1.1,3.1-1.9,4.6c-0.6,1.2-1.4,2.2-2.1,3.3
			c-1-0.8-2-1.6-3-2.4c-0.1-0.1-0.3-0.1-0.6-0.2c-0.2,0.2-0.6,0.4-0.7,0.7c-0.5,1.6,1.3,5,3,5.8c2,0.9,3-0.6,4.2-1.8
			c0.4-0.5,0.7-1.1,1.1-1.6c2.6-3.3,6-3.5,8.9-0.6c0.8,0.9,1.5,1.9,2.5,2.6c0.5,0.4,1.6,0.7,2.1,0.4c2.8-1.1,4-6.2,2-8.6
			C284.9,185.1,284.1,184.9,283.5,184.5z M217.8,275.6c-0.1-1.9-1.6-2.2-3.5-2c-8.6,0.8-17.1,0.4-25.6-1.2c-1.1-0.2-2.4,0.7-3.6,1.1
			c0.9,0.7,1.7,2,2.7,2.1c6.6,0.9,13.3,1.8,20,2.2c3.2,0.2,5.6,0.4,6.6,3.9c0.2,0.6,1.9,1.1,3,1c0.4,0,1-1.5,1-2.4
			C218.4,278.9,218.1,277.4,217.8,275.6z M234.7,271.7c6.5-2.1,12.3-5.3,17.4-9.5c2.7-2.2,5-3.6,8.4-1.7c0.5,0.3,1.7-0.1,2.1-0.6
			c0.3-0.4,0.2-1.6-0.2-2.1c-0.9-1.2-2.2-2.3-3.2-3.4c-1.2-1.4-2.5-1.1-3.6-0.1c-6,5.4-12.6,9.9-19.8,13.5
			C234.3,268.4,233.6,269.6,234.7,271.7z M164.7,130.7c0.2,0.2,0.4,0.5,0.7,0.7c1.4-0.3,2.8-0.9,4.2-0.9c2.6,0.1,4.1-1.2,5.8-2.9
			c3.1-3,6.8-3.9,11.2-3.2c2.2,0.4,4.6-0.3,7.2-0.5c-1.6-3.4-4.9-5.4-7.8-4.4c-6.2,2.1-12.2,4.5-18.2,7.1
			C166.4,127.3,165.7,129.4,164.7,130.7z M217.7,167.4c-0.3-0.3-0.5-0.6-0.8-0.9c3.2-4.1,6.3-8.3,9.9-13c-1.7,0.6-3.4,0.6-4,1.4
			c-2.4,3.3-4.6,6.7-6.6,10.2c-0.8,1.5-0.9,3.3-1.5,5.6c4.4-2,7.1-4.4,9.4-7.5c2.2-3.1,4.9-6.1,8-8.4c4.7-3.6,10.2-4.5,16-2.3
			c4.9,1.9,9.4,4.3,12.9,8.4c0.5,0.6,1.1,0.9,1.7,1.4c0.2-0.2,0.4-0.3,0.6-0.5c-0.5-0.8-0.8-1.8-1.4-2.5c-5.1-5-10.9-9-18.4-9.2
			c-9.8-0.3-16.1,5.4-21,13.1c-0.7,1.1-1.3,2.2-2.3,3.1C219.5,166.9,218.5,167,217.7,167.4z M270.7,241.3c0.5-0.6,1-1,1.2-1.6
			c2.3-4.9,4.8-9.8,6.7-14.9c1-2.7,1.9-4.6,5.2-4.7c0.6,0,1.7-1.1,1.7-1.7c0-0.7-0.8-1.7-1.5-2c-1.5-0.5-3.1-0.9-4.6-0.7
			c-0.9,0.1-2.2,1-2.5,1.9c-2.6,6.5-5,13-7.5,19.6C268.7,238.8,268.4,240.3,270.7,241.3z M168.5,264.4c-0.3-0.3-0.9-0.8-1.5-1.3
			c-4.4-3.6-8.9-7.1-13.3-10.7c-0.6-0.5-1.3-1.1-2-1.3c-0.7-0.2-1.5,0.1-2.3,0.2c0.2,0.7,0.1,1.7,0.6,2.1c3.1,3,6.2,6,9.5,8.7
			c2.5,2,4.5,3.9,3.1,7.5c-0.6,1.5,1.2,2.9,2.6,2.3C166.9,271.4,169.2,266.5,168.5,264.4z M131.7,210.3c-0.4,0.2-0.7,0.3-1.1,0.5
			c0,1-0.3,2-0.1,2.9c1,4.3,2.1,8.6,3.4,12.8c1,3.1,2.6,6-0.8,8.8c-0.4,0.3-0.3,1.7,0,2.5c0.1,0.3,1.3,0.6,1.9,0.4
			c1.4-0.5,2.9-1,4-1.9c0.7-0.6,1.2-2.1,1-2.9c-2-6.7-4.1-13.4-6.3-20C133.4,212.2,132.4,211.3,131.7,210.3z M128.5,190
			c-0.3-0.3-0.6-0.6-1-0.8c-0.8,0.7-2.1,1.3-2.3,2.2c-0.4,1.8,1.3,1.9,2.5,2.1c1,0.2,2,0.3,3,0.6c1.8,0.5,2.4-0.4,2.9-2
			c1.8-6.4,3.6-12.7,5.4-19.1c0.2-0.7,0.4-1.5,0.3-2.2c-0.2-0.8-0.7-1.6-1.1-2.3c-0.6,0.6-1.6,1-1.8,1.7c-1.9,5.4-3.5,10.9-5.4,16.3
			C130.7,187.8,129.4,188.9,128.5,190z M198.3,122.8c0-0.6-0.1-1,0-1.3c0.3-1.1,0.6-3.2,1.2-3.2c1.3-0.2,2.7,0.5,3.9,1
			c0.8,0.4,1.4,1.2,2,1.8c1.7,1.6,2.8,0.9,4.1-0.7c1.4-1.7,3.2-3.2,4.8-4.8c0.4-0.4,0.9-1,0.8-1.2c-0.3-0.5-0.9-1-1.4-1.1
			c-0.6-0.1-1.5,0.1-2,0.6c-1.4,1.3-2.5,1.4-3.9-0.1c-1.1-1.2-2.5-1.5-3.9-0.1c0.6,0.9,1.2,1.6,1.8,2.4c-0.2,0.3-0.3,0.6-0.5,0.8
			c-1.1-0.6-2.3-1.1-3.2-1.9c-1.9-1.5-3.8-1.7-5.8-0.1c-2.1,1.7-2.8,4-1.8,6.1C195.2,122.7,196.3,123.6,198.3,122.8z M252.3,167.3
			c0.1-0.3,0.3-0.5,0.4-0.8c-4.7-6.5-10.7-7.7-16.6-3.5c-3.1,2.3-4.2,6.4-2.4,9.3c2.5,3.9,6.1,5.2,9.3,3.2c0.8-0.5,1.1-1.5,1.7-2.3
			c-1-0.4-1.3-0.4-1.7-0.3c-2.4,0.9-5.2,0.2-6.3-1.8c-1.3-2.3-0.5-4.3,1.2-6c2.7-2.7,6-3,9.6-0.9
			C249.2,165.2,250.8,166.3,252.3,167.3z M223,267.8c-1.6,1.2-1.9,6.5-0.5,7.5c0.3,0.2,0.7,0.2,1,0.2c1.7-0.3,3.4-0.7,5.2-0.9
			c2.3-0.3,3-1.7,2.6-3.7c-0.4-2,0.1-3.3,1.6-4.6c0.6-0.5,1-1.7,0.9-2.6c0-0.4-1.2-1-1.9-1.1c-1.9-0.3-3.3-1-4-2.9
			c-0.2-0.5-1.1-1.1-1.6-1.1c-1.5,0.3-3.1,0.6-4.5,1.3c-1.3,0.6-2.1,1.8-0.8,3.3c4.3-2.7,7-2.1,8.4,1.8c0.9,2.7,0.2,5.8-1.6,6.3
			C225.1,271.8,223.7,270.2,223,267.8z M173.3,237.3c-1.3,0-2.7,0.3-3.1-0.2c-2.4-3-4.8-6-6.8-9.2c-2-3.2-1.6-3.9,1.8-5.9
			c-1.3-1.8-2.8-1.3-4-0.3c-0.9,0.7-2.2,2.6-1.9,3c3,4.8,6.2,9.5,9.7,14c1.7,2.2,3.5,0.7,4.9-0.7c1.5-1.5-0.2-2.4-1-3.4
			c-0.4-0.5-0.8-1-1.3-1.5c-2-2.3-4.4-4.6-1.7-7.9c0.2-0.3,0-1.2-0.3-1.5c-0.3-0.3-1-0.2-1.5,0c-2.4,0.8-3.3,2.9-1.8,5
			C168.3,231.5,170.6,234,173.3,237.3z M191.1,270.3c-0.1,0.2-0.2,0.5-0.3,0.7c0.5,0.3,1,0.7,1.6,0.8c7.7,1.6,15.5,1.7,23.3,0.4
			c1.6-0.3,2.9-1,2.5-2.9c-0.4-1.8-1.5-2.5-3.4-2.4c-5.6,0.1-11.2,0-16.8,0c-1.9,0-3.8-0.2-5.8-0.2c0,0.3-0.1,0.6-0.1,0.9
			c1.5,0.4,2.9,1,4.4,1c5.2,0.1,10.5,0,15.7,0.1c1.4,0,3.4-1,3.7,1.3c0,0.3-2.3,1.3-3.6,1.3c-4.8,0.1-9.6,0-14.3-0.1
			C195.8,271,193.5,270.6,191.1,270.3z M282.3,200.7c1.1-3.4-0.6-4.8-2.4-6.6c-5.1-5-6.1-5.1-10.8,0.3c-0.5,0.6-1.3,1.2-1.6,1.9
			c-0.3,0.8-0.2,1.7-0.3,2.6c1.2-0.1,3,0.2,3.6-0.4c2.6-2.9,6-3,8.7,0.1C280.2,199.4,281.3,199.9,282.3,200.7z M191.4,259.3
			c-0.1,0.3-0.2,0.6-0.3,1c1.2,0.4,2.4,1,3.7,1.2c6.1,1.2,12.3,1.4,18.4,0.7c0.7-0.1,1.6,0.7,2.4,1.1c-0.7,0.5-1.3,1.4-2.1,1.4
			c-3.7,0.2-7.4,0.4-11,0.3c-3.6-0.1-7.2-0.7-10.8-1c-0.1,0.2-0.1,0.4-0.2,0.7c0.6,0.2,1.2,0.7,1.8,0.7c7.2,0.2,14.4,0.4,21.5,0.3
			c2.8,0,3.7-2.2,1.8-4.3c-0.7-0.7-2.3-1-3.4-0.8c-6.8,0.9-13.4,0.4-20.1-1C192.6,259.3,192,259.4,191.4,259.3z M246.1,229.4
			c-0.3-0.2-0.5-0.5-0.8-0.7c0.8-3.4,1.8-6.7,2.2-10.2c0.2-1.2-0.8-2.7-1.4-3.9c-0.2-0.3-1.3-0.1-2-0.1c0,0.6,0,1.2,0.1,1.8
			c0.3,1.4,0.9,2.8,0.8,4.1c-0.3,2.3-1.2,4.4-1.7,6.7c-0.2,1.2-0.3,3.1,0.3,3.5c0.9,0.6,2.7,0.6,3.8,0.1c1.2-0.5,2-1.8,2.8-2.9
			c1-1.3,1.7-2.8,2.6-4.2c2.3-3.6,1.6-4.9-3.6-5.3c2.2,2,2.2,3.9,0.5,5.9C248.5,225.9,247.3,227.7,246.1,229.4z M236.3,264.9
			c0.1,0.2,0.2,0.5,0.4,0.7c0.6-0.2,1.3-0.2,1.7-0.5c5.8-4.1,11.5-8.3,17.2-12.5c1.3-1,2.1-2.2,0.7-3.7c-1.4-1.6-2.7-1.1-4.3,0.1
			c-5,3.7-10.1,7.1-15.1,10.7c-0.8,0.5-1.5,1.1-2.2,1.6c0.2,0.3,0.3,0.5,0.5,0.8c1.6-0.8,3.3-1.3,4.7-2.3c4.1-2.9,8.1-6.1,12.2-9.1
			c0.5-0.4,1.3-0.3,1.9-0.5c0,0.7,0.1,1.5-0.1,2.2c-0.1,0.4-0.6,0.7-0.9,1c-4.8,3.3-9.5,6.6-14.3,9.9
			C237.9,263.8,237.1,264.4,236.3,264.9z M159.1,127.6c-0.2-0.1-0.5-0.3-0.7-0.4c-2.6-0.1-5.2,2.3-5.8,5.4c-0.6,2.6,1.2,7,3.3,7.6
			c0.6,0.2,1.9-0.3,2.3-0.8c1.1-1.9,2-3.9,2.9-5.8C157.8,132.1,157.8,132.1,159.1,127.6z M155.5,167.1c-0.3-0.2-0.6-0.3-0.9-0.5
			c-0.9,1.4-1.7,2.9-2.7,4.1c-0.6,0.6-2.1,1.4-2.4,1.1c-2.2-1.8-4.4-3.9-6.3-6c-0.3-0.4-0.1-1.6,0.3-2.2c0.3-0.4,1.3-0.2,2-0.3
			c0.9,0,1.9,0,2.8,0c0-0.3,0.1-0.5,0.1-0.8c-0.6-0.5-1.2-1.1-2-1.4c-1.3-0.6-2.5-2.4-4.1-0.5c-2.3,2.7-2.4,4.5-1.1,6.4
			c0.8,1.3,0.9,3,1.5,4.5c0.4,0.9,1.6,2.5,1.7,2.4c2-1.2,4-0.4,6,0c0.4,0.1,1.1-0.1,1.3-0.4C152.9,171.5,154.2,169.3,155.5,167.1z
			 M274.5,208.4c0.4,2.4,1.7,3.4,4.3,3.4c0.8,0,2.1-0.8,2.4-1.6c1.4-4.2-1.1-10.5-5.2-11.1c-2.8-0.3-6,1.7-8.8,3.1
			c-0.7,0.4-0.6,2.6-0.8,3.9c-0.3,3.2,1.5,4.4,4.7,2.9c-0.3-0.4-0.5-0.8-0.8-1.1c-2.3-2.4-1.9-4.8,1.2-5.6c2.1-0.5,4.6-0.3,6.7,0.3
			c1.9,0.6,2.6,2.7,1.8,4.6c-0.8,2-2.4,2.4-4.3,1.2C275.5,208.5,275.1,208.5,274.5,208.4z M254.2,241.7c0.9-2.2,1.5-4.5,4.4-4.7
			c2.9-0.2,6.9,2.7,7,5.5c0.1,1.3-0.7,3.2-1.7,3.9c-0.7,0.5-2.6-0.4-3.8-1c-0.7-0.3-1.1-1.3-1.7-2.1c-1.2,2.1,0.4,4.6,4.7,7.7
			c1.6-1.9,3.3-3.8,4.7-5.9c0.4-0.5,0.1-2.1-0.4-2.5c-1.5-1.2-2-2.6-1.4-4.4c0.6-2-0.8-2.4-2.3-2.5c-2.3-0.1-4.6-0.1-7.5-0.2
			C256,237.1,252.1,238.2,254.2,241.7z M148.6,156.2c0.4-0.3,0.6-0.5,0.8-0.6c2.4-2.5,4.9-5,7.2-7.6c0.4-0.5,0.7-1.3,0.7-2
			c0-0.6-0.2-1.4-0.6-1.6c-0.4-0.2-1.3,0-1.7,0.3c-1,0.8-1.9,1.7-2.7,2.7c-2,2.5-4,4.7-7.6,2.4c-0.4-0.3-1.7,0.1-2,0.6
			c-0.3,0.4,0,1.6,0.5,2.1c1.1,1.2,2.5,2.2,3.8,3.2C147.4,156,148.1,156,148.6,156.2z M218.2,241.3c-0.9,1-1.5,1.9-2.3,2.5
			c-3.3,2.7-3.7,5-1.5,8.5c3.4-0.9,6.8-1.8,10.1-2.8c2.6-0.7,3-2.5,1.7-4.6c-0.5-0.9-1.8-1.4-2.7-2c0,1,0.1,1.9,0.1,2.9
			c0,0.3,0.2,0.7,0.5,1.6c-2.3,0.7-4.5,1.6-6.8,2c-0.6,0.1-1.4-1.1-2.1-1.6c0.5-0.5,0.9-1.3,1.5-1.6
			C219.7,244.9,219.9,244.3,218.2,241.3z M160.4,204.5c-4.2-2-6.4-0.7-6,3.3c0.3,2.6,1,5.1,1.4,7.6c0.3,2,1.2,3.2,3.5,2.8
			c2.4-0.5,3-2,2.3-4c-0.8-2.2-0.5-3.6,2.2-3.7c0.4,0,1.1-0.5,1.1-0.9c0-0.4-0.5-1.2-0.8-1.2c-1.5-0.1-3-0.4-4.4,0
			c-0.5,0.1-0.6,2-0.6,3c0,1,0.6,2,0.6,3c0,0.6-0.6,1.1-0.9,1.7c-0.2-0.1-0.5-0.1-0.7-0.2c-0.4-1.7-0.8-3.4-1.1-5.1
			C156.4,206.4,156.4,206.4,160.4,204.5z M230.1,256c0.2,0.3,0.3,0.7,0.5,1c1.1-0.4,2.2-0.6,3.1-1.2c4.8-3.3,9.4-6.7,14.2-10.1
			c0.7-0.5,1.8-0.5,2.7-0.8c-0.3,1-0.3,2.3-0.9,2.8c-5,3.6-10.2,6.9-15.3,10.4c-0.6,0.4-1.2,0.8-1.7,1.2c0.2,0.2,0.3,0.5,0.5,0.7
			c2.1-1.1,4.3-2,6.1-3.4c4.1-3,8.1-6.1,12-9.4c1.5-1.3,1-2.9-0.1-4.2c-1.4-1.6-2.4-0.3-3.5,0.6c-3.2,2.5-6.3,5.1-9.6,7.4
			C235.5,252.9,232.7,254.4,230.1,256z M148.6,238.2c-0.5,0-1.4-0.3-1.9,0.1c-1.7,1.1-3.3,2.4-5,3.6c-0.1,0.1,0.1,0.5,0.2,0.8
			c1.2,1.7,2.4,3.5,3.7,5.1c1.1,1.3,9.2,0.1,10.1-1.3c3.2-5,3.2-5-0.2-9.9c-0.1-0.2-0.2-0.3-0.3-0.5c-1-1.9-1.9-1.5-2.9,0
			c3.2,1.9,4.3,4.5,3,6.8c-1.4,2.6-6.4,4.6-8.7,3.1c-1.1-0.8-2.4-2.8-2.1-3.7C145.3,240.8,147,239.7,148.6,238.2z M144.8,200.3
			c-0.3,0-0.7,0-1,0c-0.1,0.4-0.3,0.9-0.3,1.3c0.3,5.6-2.4,6.5-7.9,6c-2.3-0.2-3.6-2.2-3.2-4.4c0.5-2.3,2.2-2.7,4.2-2.3
			c0.7,0.1,1.3,0.2,2,0.3c0.1-0.3,0.1-0.6,0.2-1c-2.7-0.4-5.5-0.8-8.9-1.3c0.2,2.9-0.5,5.8,0.7,7.6c1.4,2.1,4.3,3.2,6.6,4.7
			c0.1,0,0.2,0.1,0.3,0c2.4-1.2,4.9-2.4,7.3-3.7c0.1-0.1,0.2-0.3,0.2-0.5C144.9,204.7,144.8,202.5,144.8,200.3z M232.7,234.2
			c-1.3,2.4-2.7,4.5-3.7,6.7c-0.4,1-0.4,2.6,0.2,3.5c0.4,0.6,2.4,0.9,3.1,0.5c3.2-1.9,6.3-4.1,9.2-6.4c0.8-0.6,1.7-2.3,1.4-2.9
			c-0.8-1.3-2.2-2.2-3.4-3.2c-0.3,0.3-0.5,0.5-0.8,0.8c0.7,1,1.3,2,2.3,3.5c-2.7,2.1-5.4,4.2-8.1,6.1c-0.4,0.3-1.1,0-1.7,0
			c0.1-0.6,0.1-1.4,0.4-1.9c0.6-0.9,1.5-1.6,2.1-2.5C234.9,236.4,234.1,235.1,232.7,234.2z M260.6,233.1c0.3,0.1,0.6,0.3,0.9,0.4
			c3.2-3.8,4.6-8.5,6.2-13c0.6-1.7,1.3-3.6,1.3-5.3c0-1-1.3-2.2-2.3-2.8c-1.4-0.8-2,0.3-2.5,1.6c-2,5.2-4.1,10.3-6.1,15.4
			c-0.4,0.9-0.5,1.9-0.8,2.8c0.9,0,1.4-0.3,1.5-0.6c2.1-5.1,4.2-10.2,6.4-15.3c0.4-0.9,1.3-1.5,1.9-2.2c0.2,1,0.7,2.1,0.4,2.9
			c-1.1,3.3-2.4,6.6-3.8,9.8C262.8,228.9,261.6,231,260.6,233.1z M177.6,264.9c-0.2-0.1-0.4-0.2-0.7-0.3c-0.8,1.3-2,2.5-2.4,3.9
			c-0.3,0.9,0.4,2.7,1.1,3c1.9,0.9,4,1.5,6.1,1.6c0.7,0,1.3-2.5,2.3-2.7c4.2-0.9,3.2-3.4,3-6.5c-0.3-4.6,0.2-4.6-4.4-5.9
			c-2.1-0.6-2.8,0.2-3.1,2.5c0.9-0.4,1.6-0.8,2.2-1c1.8-0.6,4.7,1.4,4.3,3.1c-0.7,2.6-1.9,5.1-3.3,7.4c-0.5,0.7-2.6,0.8-3.8,0.4
			c-0.8-0.3-1.2-1.8-1.5-2.9C177.1,266.5,177.5,265.7,177.6,264.9z M212.5,163.2c0.3,0.2,0.5,0.5,0.8,0.7c1-0.8,2.3-1.4,3.1-2.4
			c1.7-2.1,3.1-4.6,4.9-6.6c1.9-2.1,1.4-3.8-0.1-6C216.5,152.9,213.9,157.7,212.5,163.2z M171.2,264.1c3.4-2.8,3.4-3.6,0.3-6.1
			c-4-3.1-8-6.2-12-9.2c-0.4-0.3-1-0.5-1.5-0.7c-0.1,0.2-0.3,0.4-0.4,0.6c0.5,0.5,1,1.1,1.5,1.5c4,3.2,8.1,6.3,12.1,9.5
			c0.6,0.5,0.7,1.4,1,2.2c-0.8-0.1-1.8,0.1-2.3-0.3c-4.6-3.5-9.2-7-13.8-10.5c-0.4-0.3-0.9-0.4-1.3-0.6
			C159.2,256.4,165.1,260.4,171.2,264.1z M263,234.4c0.8,0,1,0,1.1-0.1c0.3-0.2,0.6-0.5,0.7-0.8c2.3-5.5,4.5-11.1,6.8-16.6
			c0.4-0.9,1.1-1.6,1.7-2.3c0.3,1,1,2.2,0.8,3c-1.6,5-3.5,9.9-5.3,14.8c-0.4,1-0.8,2.1-1.2,3.1c0.3,0.1,0.5,0.2,0.8,0.3
			c3.3-5.8,5.7-12,7.1-18.6c0.4-1.7,0.4-3.1-1.7-3.6c-2.1-0.5-2.7,0.8-3.3,2.4c-1.7,4.9-3.6,9.8-5.5,14.7
			C264.4,231.9,263.7,232.9,263,234.4z M143.2,212.5c-0.5,0.1-1,0.2-1.5,0.3c0.4,1.6,0.8,3.2,1.3,4.7c1.6,4.4,3.2,8.8,5.1,13.1
			c0.4,0.9,2.1,1.4,3.3,1.5c0.4,0,1.7-1.8,1.5-2.4c-1.8-6-3.9-11.9-5.9-17.8c-0.1-0.3-0.4-0.5-0.6-0.8c-0.5,1.5-0.5,3-0.1,4.3
			c1.6,4.5,3.4,8.9,5,13.4c0.2,0.7-0.3,1.6-0.5,2.4c-0.6-0.4-1.5-0.7-1.8-1.3c-1.3-3-2.4-6-3.5-9
			C144.6,218.2,143.9,215.3,143.2,212.5z M264.6,187.9c0.2-0.1,0.4-0.2,0.6-0.3c0.1-0.3,0.2-0.7,0.1-1c-2.1-5.1-4-10.3-6.4-15.2
			c-1.3-2.5-3.9-2.6-5.7-0.7c-0.5,0.5-0.6,1.2-0.9,1.9c0.6,0.3,1.2,0.8,1.8,0.7c2.5-0.2,4,0.9,5,3.1c1.4,3.2,2.9,6.4,4.3,9.5
			C263.7,186.6,264.2,187.2,264.6,187.9z M143.9,177c-0.2-0.1-0.5-0.2-0.7-0.3c-0.3,0.8-0.6,1.6-0.8,2.4c-1.1,4.4-2.1,8.8-3.3,13.1
			c-0.2,0.8-1.1,1.5-1.6,2.2c-0.3-0.8-1.1-1.8-0.9-2.5c1.1-4.8,2.3-9.5,3.5-14.2c0.1-0.6,0.2-1.2,0.3-1.7c-0.3-0.1-0.6-0.1-0.9-0.2
			c-0.9,2.9-2,5.8-2.7,8.8c-0.7,3.1-1.1,6.3-1.5,9.5c-0.2,1.6,0.8,2.3,2.3,2.4c1.5,0.1,2.2-0.4,2.3-2c0.1-0.9,0.4-1.8,0.6-2.7
			C141.5,186.9,142.7,182,143.9,177z M136.6,214.1c-0.3,0.1-0.6,0.1-0.9,0.2c0.2,1.4,0.3,2.8,0.8,4.1c2,5.3,4.2,10.6,6.4,15.8
			c0.3,0.6,2.1,1.2,2.4,1c0.8-0.7,1.2-1.8,1.5-2.9c0.1-0.4-0.3-1-0.5-1.6c-1.8-5.3-3.6-10.6-5.5-15.9c-0.2-0.5-0.6-0.9-0.9-1.4
			c-0.3,0.1-0.5,0.3-0.8,0.4c0.7,2.5,1.3,5.1,2.1,7.6c1,2.9,2.3,5.6,3.3,8.5c0.3,1,0,2.1-0.1,3.2c-0.8-0.7-1.9-1.2-2.4-2.1
			c-1-1.9-1.8-3.8-2.4-5.9C138.6,221.5,137.6,217.8,136.6,214.1z M159.8,246c-0.3,0.4-0.5,0.8-0.8,1.3c4.8,3.4,9.5,6.9,14.3,10.2
			c0.8,0.5,2.7,0.6,3.2,0c1.3-1.3,1-2.8-0.6-4c-1.6-1.1-3.2-2.2-4.7-3.4c-2.9-2.3-5.8-4.6-8.7-6.9c0.3,1.3,1,2.2,1.8,2.9
			c3.5,2.8,7.2,5.5,10.7,8.3c0.5,0.4,0.5,1.3,0.7,2.1c-0.7,0-1.6,0.3-2.1-0.1c-3.8-2.9-7.5-5.9-11.3-8.9
			C161.5,246.9,160.6,246.5,159.8,246z M183.1,146.2c0,0.3,0,0.7-0.1,1c2.7,0.6,5.4,1.2,8.2,1.8c1.4-2.9,4.6-1.4,6.7-2.8
			c0.6-0.4,1.3-0.7,1.8-1C193.8,141.7,188.6,145,183.1,146.2z M280.1,180.3c0.4-0.2,0.8-0.3,1.2-0.5c-1.1-4.2-2.4-8.3-3.4-12.5
			c-0.3-1.2,0.4-2.5,0.4-3.8c0-1.3,0-2.6-0.5-3.8c-0.2-0.4-2.2-0.7-2.5-0.3c-0.7,0.7-1.3,2.1-1,3
			C276.1,168.4,278.2,174.3,280.1,180.3z M163.3,184.7c-0.5-0.1-0.9-0.2-1.4-0.3c-1,3.7-3.2,7.1-2.9,11.1c0.1,0.7,0.3,1.5,0.6,2.1
			c0.9,1.9,3.6,3.1,5.6,2.5c2.3-0.7,1.7-2.8,2-4.4c0.1-0.5-0.9-1.1-1.3-1.7c-0.4,0.6-0.8,1.1-1.1,1.7c-0.4,0.9-0.6,1.8-0.9,2.7
			c-1-0.8-2.7-1.5-2.8-2.3c-0.2-1.8,0.5-3.7,0.9-5.6C162.4,188.7,162.8,186.7,163.3,184.7z M274.2,178.2c0.1-0.2,0.3-0.3,0.4-0.5
			c-1.3-4.6-2.4-9.2-3.9-13.7c-0.2-0.6-1.5-0.8-2.3-1.2c-0.2,0.9-0.8,1.9-0.6,2.6c1.4,3.8,3,7.5,4.7,11.2
			C272.9,177.2,273.7,177.7,274.2,178.2z M173.2,169c-0.3-0.2-0.6-0.4-1-0.6c-0.6,0.5-1.3,0.9-1.7,1.6c-2.1,3.2-4.2,6.5-6,9.9
			c-0.5,0.8,0.1,2.2,0.3,3.4c0.9-0.7,2.1-1.2,2.7-2.1c1.5-2.4,2.8-5,4-7.5C172.2,172.2,172.6,170.6,173.2,169z M269.3,177.7
			c-1.7-3.9-3.1-7.3-4.8-10.6c-0.3-0.6-1.5-0.8-2.3-1.2c-0.1,0.8-0.6,1.7-0.3,2.3c1.4,3.4,2.9,6.8,4.5,10.1c0.4,0.7,1.3,1.2,2,1.8
			C268.7,179.2,269.1,178.3,269.3,177.7z M223.7,150.4c0,0.4-0.1,0.7-0.1,1.1c1.3,0.3,2.6,0.9,3.9,0.8c0.8-0.1,1.9-1.6,1.8-2.3
			c-0.1-1.1-1-2.8-1.8-2.9c-4.3-1-8.7-1.6-13.1-2.3c0,0.3-0.1,0.5-0.1,0.8c3.6,0.9,7.3,1.8,11.7,2.9
			C224.7,149.5,224.2,149.9,223.7,150.4z M206.7,242.8c-1.3,4-4.3,4-7.5,3.6c-1.5-0.2-2.9-0.3-4.4-0.4c-0.5,0-1,0.4-2,0.9
			c4.2,2,8.1,2.5,12,2C207.6,248.6,208.3,246.1,206.7,242.8z M172.5,137.4c-1.9-0.7-4-0.1-5.5,2.1c-1.6,2.3-1.3,5.3,0.7,7.6
			c1.3,1.4,2.9,2.1,4.6,1.1c-1.2-2-3.3-4-3.2-5.8C169.1,140.6,171.3,138.9,172.5,137.4z M197.2,135c0.2,0.4,0.4,0.8,0.6,1.1
			c1.6-0.6,3.1-1.6,4.7-1.6c1.6,0,3.2,0.9,4.1,1.2c3.8-0.3,7-0.6,10.3-0.9c0-0.3,0-0.5-0.1-0.8c-5.5-1.4-11.1-1.3-16.7-0.5
			C199,133.7,198.1,134.5,197.2,135z M250.1,213.6c3.1-2,4-8.2,2.1-10.6c-0.4-0.6-1.4-1.2-2-1c-1.5,0.4-3,1.1-5.1,2
			c1.2,0.2,1.5,0.2,1.9,0.3c3.8,0.3,4.5,1.1,3.9,4.8C250.4,210.5,250.3,212.1,250.1,213.6z M195.2,148.6c3,0.7,6.3,1.5,9.5,2.3
			c1.3,0.3,1.9-0.1,1.8-1.6c-0.3-2.5-2.6-3.8-5.5-2.9C198.9,147,196.9,147.9,195.2,148.6z M162.1,155.5c-0.3-0.3-0.6-0.5-0.9-0.8
			c-2,2.3-4.1,4.4-5.9,6.9c-1.2,1.6,0.1,2.9,1.5,3.5c0.7,0.3,2.1-0.2,2.7-0.8c1.7-1.7,3.2-3.6,4.7-5.4c0.4-0.5,0.6-1.1,0.9-1.6
			c-1,0-1.6,0.3-2,0.8c-1.5,1.6-2.9,3.4-4.4,5c-0.5,0.5-1.3,0.7-1.9,1.1c-0.1-0.8-0.5-1.8-0.1-2.4c0.5-1,1.5-1.8,2.3-2.7
			C159.9,157.8,161,156.6,162.1,155.5z M258.1,205.5c-1.4,0.4-2,0.4-2.1,0.6c-0.9,2.8-1.7,5.6-2.5,8.5c0,0.2,0.9,0.8,1.5,0.9
			c0.5,0,1.4-0.4,1.5-0.7C257.1,211.9,257.5,209,258.1,205.5z M192.1,238.9c-4.1,5.8-8.1,0.4-13.1,0.5c2.4,1.8,4,3.3,5.9,4.2
			C189.2,245.7,191.6,244.3,192.1,238.9z M194,141c2.2,0,4.2-0.1,6.2,0c2.5,0.2,4.6-1.1,4.4-3.3c-0.1-0.7-1.5-1.9-1.7-1.7
			c-3,1.6-5.9,3.4-8.9,5.2C194,141.2,194.1,141.3,194,141z M160.2,153.4c-0.2-0.2-0.3-0.4-0.5-0.6c-0.6,0.5-1.3,1-1.9,1.6
			c-1.3,1.3-2.4,2.8-3.8,4c-0.5,0.5-1.5,0.5-2.2,0.8c0.1-0.9-0.2-2,0.3-2.6c1.4-1.8,3.1-3.4,4.7-5c0.5-0.6,0.9-1.3,1.3-1.9
			c-0.2-0.2-0.5-0.3-0.7-0.5c-2.3,2.3-4.7,4.5-6.7,7c-0.5,0.7-0.1,2.6,0.4,3.6c0.8,1.4,2.3,1,3.3,0
			C156.4,157.7,158.3,155.5,160.2,153.4z M191.8,136.8c7.4-7.9,16.8-4.4,25.6-5c-0.7-0.4-1.5-0.6-2.3-0.7c-3.5-0.2-7-0.3-10.5-0.5
			C199.3,130.3,194.8,131.9,191.8,136.8z M223,143.9c0,0.3,0.1,0.7,0.1,1c2.3-0.3,4.6-0.4,6.8-1c0.6-0.2,1.2-1.8,1.1-2.8
			c-0.1-0.7-1.1-1.8-1.9-2c-0.9-0.2-2.5,0.2-2.8,0.9c-0.5,0.9-0.1,2.3,0,3.7C225.2,143.8,224.1,143.8,223,143.9z M189.3,157.9
			c-0.2-0.3-0.4-0.6-0.6-0.9c-1.4,0.5-4.1,1.1-4.1,1.5c0.1,2.2,1,4.3,1.6,6.5c0.2,0,0.5-0.1,0.7-0.1
			C187.7,162.6,188.5,160.3,189.3,157.9z M145.8,197c1.7-6.7,3.4-13.4,5.1-20.1C147.5,183.2,145.8,190,145.8,197z M200.4,158.6
			c-2.5,0.6-3.4,2.5-3.6,4.6c-0.1,2,0.6,3.8,3.1,4.5C200.1,164.7,200.2,161.9,200.4,158.6z M141.7,196.5c1.7-6.4,3.3-12.8,5-19.2
			c-0.3-0.1-0.5-0.1-0.8-0.2C143.9,183.4,141.5,189.7,141.7,196.5z M195,157.8c-2.8,0.2-3.7,2.2-4.1,4.2c-0.4,1.8,0.3,3.5,2.2,4.7
			C193.8,163.7,194.4,160.9,195,157.8z M184.8,127.6c-3.4-0.9-6.5,0.5-7.3,3.2C180.5,131.8,182.3,131,184.8,127.6z M163.4,124.7
			c-1.4,2.1-2.3,3.3-3,4.6c-0.3,0.6-0.5,1.3-0.5,2c0,0.3,1.1,0.8,1.3,0.6c1.2-1.2,2.5-2.3,3.2-3.7
			C164.7,127.5,163.8,126.1,163.4,124.7z M174.2,141.9c0.2,2.6,3,4.3,7.1,4.3c-0.5-1.2-0.9-2.3-1.2-3.3
			C178,142.6,176.2,142.3,174.2,141.9z M171.1,178.3c-0.8,1.3-1.5,2.4-2.1,3.5c-0.2,0.3-0.4,0.7-0.4,1c0,0.6,0.1,1.3,0.4,1.7
			c0.1,0.3,0.8,0.4,1.2,0.3C171.7,184.4,172.5,179.9,171.1,178.3z M176.9,117.6c0.2-0.5,0.4-0.9,0.6-1.4c-2.2-0.9-4.4-1.8-6.6-2.8
			c-0.2,0.4-0.4,0.8-0.5,1.3C172.5,115.7,174.7,116.7,176.9,117.6z M174.9,130.4c2.8-3.5,6.3-5.1,10.8-4.5
			C182.3,123.7,176,126.5,174.9,130.4z M260.6,201.5c-1.4-0.5-2.2-1.2-2.8-1c-0.6,0.2-1.3,1.4-1.2,1.9c0.1,0.6,1.3,1.6,1.8,1.5
			C259.1,203.6,259.6,202.6,260.6,201.5z M204.5,121.8c-1.6-1-2.8-1.7-3.9-2.4c-0.2,0.7-0.7,1.5-0.4,2
			C200.9,122.9,202.3,123.1,204.5,121.8z M176,112c-0.2,0.4-0.5,0.7-0.7,1.1c1.7,1.1,3.3,2.2,5,3.3c0.2-0.4,0.5-0.8,0.7-1.1
			C179.4,114.2,177.7,113.1,176,112z M207.5,146.1c0,0.3-0.1,0.6-0.1,0.8c2.3,0.7,4.7,1.5,7,2.2c0.1-0.4,0.2-0.7,0.3-1.1
			C212.2,147.4,209.8,146.7,207.5,146.1z M210.2,136.1c-0.4-0.1-0.8-0.2-1.2-0.3c-0.2,0.9-0.8,1.9-0.5,2.5c0.2,0.5,1.4,0.9,2.2,0.9
			c0.4,0,1.1-1.2,1-1.7C211.6,137,210.7,136.6,210.2,136.1z M162.1,117.9c-0.1,0.4-0.2,0.8-0.3,1.2c2.6,0.4,5.1,0.8,7.7,1.2
			c0.1-0.3,0.1-0.5,0.2-0.8C167.1,119,164.6,118.5,162.1,117.9z M166.4,115.7c-0.1,0.3-0.2,0.6-0.3,0.9c2.3,0.7,4.6,1.5,6.8,2.2
			c0.1-0.3,0.2-0.7,0.3-1C171,117,168.7,116.3,166.4,115.7z M158.1,120.4c0,0.3,0,0.6-0.1,0.8c2.4,0.2,4.8,0.5,7.2,0.7
			c0-0.3,0-0.6,0.1-0.9C162.9,120.8,160.5,120.6,158.1,120.4z"/>
	</g>
</g>
</svg>
